<svg xmlns="http://www.w3.org/2000/svg" viewBox="0 0 43 37" width="43" height="37">
	<style>
		tspan { white-space:pre }
		.shp0 { fill: #fed136 } 
	</style>
	<g id="Services">
		<g id="2 - Responsive Web">
			<path id="Icon-Laptop" fill-rule="evenodd" class="shp0" d="M8.36 1.9L35.26 1.9C37.49 1.9 39.3 3.71 39.3 5.94L39.3 23.43C39.3 23.9 39.22 24.35 39.07 24.77L39.3 24.77L39.3 27.46L35.26 27.46L35.26 5.94L8.36 5.94L8.36 27.46L4.32 27.46L4.32 24.77L4.55 24.77C4.4 24.35 4.32 23.9 4.32 23.43L4.32 5.94C4.32 3.71 6.13 1.9 8.36 1.9ZM4.32 30.15L39.3 30.15C40.79 30.15 41.99 31.36 41.99 32.84C41.99 34.33 39.44 35.53 37.95 35.53L5.67 35.53C4.18 35.53 1.63 34.33 1.63 32.84C1.63 31.36 2.83 30.15 4.32 30.15ZM16.43 33.52C16.43 33.89 17.03 34.19 17.77 34.19L25.85 34.19C26.59 34.19 27.19 33.89 27.19 33.52C27.19 33.14 26.59 32.84 25.85 32.84L17.77 32.84C17.03 32.84 16.43 33.14 16.43 33.52ZM12.78 17.68L14.67 15.78C15.19 15.26 16.04 15.26 16.56 15.78L19.05 18.28L27.05 10.24C27.57 9.71 28.42 9.71 28.94 10.24L30.84 12.14C31.36 12.66 31.36 13.52 30.84 14.04L20.42 24.51C19.97 24.96 19.29 25.02 18.77 24.7C18.33 24.8 17.85 24.69 17.51 24.34L12.78 19.59C12.25 19.06 12.25 18.21 12.78 17.68Z" />
		</g>
	</g>
</svg>