<svg xmlns="http://www.w3.org/2000/svg" viewBox="0 0 31 40" width="31" height="40">
	<style>
		tspan { white-space:pre }
		.shp0 { fill: #fed136 } 
	</style>
	<g id="Services">
		<g id="3 - Web Security">
			<path id="Icon-Locked" fill-rule="evenodd" class="shp0" d="M15.68 1.63C20.84 1.63 25.02 5.29 25.02 9.8L25.02 19.13L26.18 19.13C28.12 19.13 29.68 20.7 29.68 22.63L29.68 35.46C29.68 37.4 28.12 38.96 26.18 38.96L5.19 38.96C3.25 38.96 1.69 37.4 1.69 35.46L1.69 22.63C1.69 20.7 3.25 19.13 5.19 19.13L6.35 19.13L6.35 9.8C6.35 5.29 10.53 1.63 15.68 1.63ZM11.02 9.8L11.02 17.97C11.02 18.37 11.11 18.77 11.28 19.13L20.09 19.13C20.26 18.77 20.35 18.37 20.35 17.97L20.35 9.8C20.35 7.87 18.26 6.3 15.68 6.3C13.11 6.3 11.02 7.87 11.02 9.8ZM13.35 33.13C13.35 34.42 14.4 35.46 15.68 35.46C16.97 35.46 18.02 34.42 18.02 33.13L18.02 31.34C19.41 30.53 20.35 29.03 20.35 27.3C20.35 24.72 18.26 22.63 15.68 22.63C13.11 22.63 11.02 24.72 11.02 27.3C11.02 29.03 11.96 30.53 13.35 31.34L13.35 33.13Z" />
		</g>
	</g>
</svg>