<svg xmlns="http://www.w3.org/2000/svg" viewBox="0 0 42 42" width="42" height="42">
	<style>
		tspan { white-space:pre }
		.shp0 { fill: #fed136 } 
	</style>
	<g id="Services">
		<g id="1 - E-Commerce">
			<path id="Icon-Basket" fill-rule="evenodd" class="shp0" d="M1.75 14.89C1.75 12.99 3.3 11.45 5.2 11.45L9.08 11.45C9.14 11.23 9.23 11.01 9.35 10.8L13.48 3.65C14.24 2.33 15.93 1.88 17.24 2.64C18.56 3.4 19.01 5.09 18.25 6.4L15.34 11.45L26.72 11.45L23.81 6.4C23.05 5.09 23.5 3.4 24.81 2.64C26.13 1.88 27.81 2.33 28.58 3.65L32.71 10.8C32.83 11.01 32.91 11.23 32.98 11.45L36.86 11.45C38.76 11.45 40.3 12.99 40.3 14.89C40.3 16.79 38.76 18.33 36.86 18.33L5.2 18.33C3.3 18.33 1.75 16.79 1.75 14.89ZM36.28 40.36L5.78 40.36L4.59 19.71L37.47 19.71L36.28 40.36ZM19.65 26.59L19.65 34.85C19.65 35.61 20.27 36.23 21.03 36.23C21.79 36.23 22.4 35.61 22.4 34.85L22.4 26.59C22.4 25.83 21.79 25.21 21.03 25.21C20.27 25.21 19.65 25.83 19.65 26.59ZM27.91 26.59L27.91 34.85C27.91 35.61 28.53 36.23 29.29 36.23C30.05 36.23 30.66 35.61 30.66 34.85L30.66 26.59C30.66 25.83 30.05 25.21 29.29 25.21C28.53 25.21 27.91 25.83 27.91 26.59ZM11.39 26.59L11.39 34.85C11.39 35.61 12.01 36.23 12.77 36.23C13.53 36.23 14.14 35.61 14.14 34.85L14.14 26.59C14.14 25.83 13.53 25.21 12.77 25.21C12.01 25.21 11.39 25.83 11.39 26.59Z" />
		</g>
	</g>
</svg>